<svg height="64" viewBox="0 0 64 64" width="64" xmlns="http://www.w3.org/2000/svg"><path d="M52 34c0-10.81-5.997-15.997-6-16H18c-.004.003-6 5.19-6 16 0 14.251 12 15.563 12 20.001C24 59 18 59.188 18 64c0 0 5-2 8-2 1.938 0 2.125 2 6 2s4.063-2 6-2c3 0 8 2 8 2 0-4.813-6-5-6-9.999 0-4.438 12-5.75 12-20.001z" fill="#735538"/><path d="M60 46.001H4a4 4 0 1 0 0 8h56a4 4 0 0 0 0-8z" fill="#4d4d4d"/><path d="M28 44a2 2 0 0 0-2 2.001 2 2 0 1 0-4 0V50a2 2 0 0 0 4 0 2 2 0 0 0 4 0v-3.999A2 2 0 0 0 28 44zm12 0a2 2 0 0 0-2 2.001 2 2 0 1 0-4 0V50a2 2 0 0 0 4 0 2 2 0 0 0 4 0v-3.999A2 2 0 0 0 40 44z" fill-rule="evenodd" clip-rule="evenodd" fill="#bf8d5e"/><path d="M47.138 8.37C47.588 5.736 48 2.617 48 0c-2.253 0-5.139 3.697-6.756 6.064A11.944 11.944 0 0 0 32 9.073a11.944 11.944 0 0 0-9.244-3.009C21.139 3.697 18.253 0 16 0c0 2.617.412 5.736.862 8.369C13.917 10.556 12 14.05 12 18c0 6.628 5.372 12 12 12 3.078 0 5.876-1.169 8-3.073A11.944 11.944 0 0 0 40 30c6.627 0 12-5.372 12-12 0-3.95-1.917-7.443-4.862-9.63z" fill-rule="evenodd" clip-rule="evenodd" fill="#a67a51"/><path d="M40 10a8 8 0 0 0-8 8 8 8 0 1 0-2.912 6.175L32 30l2.912-5.825A8 8 0 1 0 40 10z" fill-rule="evenodd" clip-rule="evenodd" fill="#e6e6e6"/><path d="M24 14a4 4 0 1 0 0 8 4 4 0 0 0 0-8zm16 0a4 4 0 1 0 0 8 4 4 0 0 0 0-8z" fill-rule="evenodd" clip-rule="evenodd" fill="#4d4d4d"/></svg>