<svg xmlns="http://www.w3.org/2000/svg" viewBox="0 0 512.001 512.001"><path d="M511.721 148.145c-4.28-60.863-57.257-106.895-118.143-102.619-45.155 3.175-83.013 33.125-97.073 74.91h-81.009c-14.06-41.785-51.919-71.735-97.075-74.91C57.543 41.261 4.559 87.283.279 148.145c-2.074 29.484 7.458 58.01 26.843 80.324 18.511 21.313 43.899 34.495 71.829 37.444l-7.764 81.335c-8.256 57.219 25.487 104.214 84.115 117.038 28.489 6.229 56.369.524 76.48-15.664a73.428 73.428 0 0 0 4.218-3.666 74.062 74.062 0 0 0 4.218 3.666c14.775 11.892 33.743 18.129 54.068 18.129 7.339 0 14.852-.812 22.411-2.467 58.656-12.829 92.398-59.95 84.115-117.346l-7.743-81.028c27.922-2.952 53.302-16.133 71.809-37.441 19.385-22.313 28.918-50.841 26.843-80.324z" fill="#96a8b0"/><g fill="#364a57"><path d="M206.394 293.389c-11.107 0-20.111-9.004-20.111-20.111v-10.726c0-11.106 9.004-20.111 20.111-20.111 11.106 0 20.111 9.004 20.111 20.111v10.726c0 11.106-9.004 20.111-20.111 20.111zM305.608 293.389c-11.107 0-20.111-9.004-20.111-20.111v-10.726c0-11.106 9.004-20.111 20.111-20.111s20.111 9.004 20.111 20.111v10.726c-.001 11.106-9.005 20.111-20.111 20.111z"/></g><g fill="#ce9696"><circle cx="107.834" cy="149.075" r="35.288"/><circle cx="404.173" cy="149.075" r="35.288"/></g><path d="M256.95 120.436h-41.454c-14.06-41.785-51.919-71.735-97.075-74.91C57.543 41.261 4.559 87.283.279 148.145c-2.074 29.484 7.458 58.012 26.843 80.324 18.511 21.313 43.899 34.495 71.829 37.444l-7.764 81.335c-8.256 57.219 25.487 104.214 84.115 117.038 28.489 6.229 56.369.524 76.48-15.664a73.428 73.428 0 0 0 4.218-3.666c.31.29.633.571.949.857V120.436h.001z" fill="#b9ced9"/><circle cx="107.834" cy="149.075" r="35.288" fill="#eaa9a9"/><g fill="#364a57"><path d="M351.179 369.464c-10.467 0-19.298-8.105-20.04-18.706-.776-11.081 7.575-20.693 18.655-21.468l99.287-6.956c11.092-.799 20.693 7.574 21.468 18.655.776 11.081-7.575 20.693-18.655 21.468l-99.287 6.957c-.481.034-.956.05-1.428.05zM435.049 453.237c-2.374 0-4.788-.422-7.139-1.317l-100.708-38.264c-10.383-3.944-15.602-15.56-11.656-25.944 3.944-10.383 15.558-15.606 25.944-11.655l100.708 38.263c10.383 3.944 15.602 15.56 11.656 25.944-3.053 8.031-10.697 12.973-18.805 12.973z"/></g><g fill="#476172"><path d="M206.394 293.389c-11.107 0-20.111-9.004-20.111-20.111v-10.726c0-11.106 9.004-20.111 20.111-20.111 11.106 0 20.111 9.004 20.111 20.111v10.726c0 11.106-9.004 20.111-20.111 20.111zM160.822 369.464c-.473 0-.948-.017-1.427-.051l-99.287-6.957c-11.08-.775-19.431-10.387-18.655-21.468.776-11.08 10.362-19.452 21.468-18.655l99.287 6.956c11.08.775 19.431 10.387 18.655 21.468-.743 10.601-9.574 18.707-20.041 18.707zM76.952 453.237c-8.111 0-15.752-4.942-18.804-12.974-3.943-10.383 1.275-21.997 11.658-25.943l100.709-38.264c10.378-3.944 21.997 1.274 25.943 11.658 3.944 10.383-1.275 21.997-11.658 25.943L84.092 451.92a20.083 20.083 0 0 1-7.14 1.317z"/></g><path d="M265.386 406.009h-18.77c-11.107 0-20.111-9.004-20.111-20.111 0-11.107 9.004-20.111 20.111-20.111h18.77c11.107 0 20.111 9.004 20.111 20.111 0 11.107-9.004 20.111-20.111 20.111z" fill="#aa5446"/><path d="M256.95 365.787h-10.334c-11.107 0-20.111 9.004-20.111 20.111 0 11.106 9.004 20.111 20.111 20.111h10.334v-40.222z" fill="#dd6b5b"/></svg>